<svg width="64" height="64" viewBox="0 0 64 64" fill="none" xmlns="http://www.w3.org/2000/svg">
<path d="M45.696 27.1374C42.368 27.1374 39.552 29.3774 38.784 32.5134C37.568 32.1934 36.416 31.5534 35.52 30.5934C35.072 30.1454 34.688 29.5694 34.368 28.9934C34.24 28.6734 34.048 28.3534 33.984 28.0334C33.728 27.3294 33.6 26.5614 33.6 25.7934V16.1934L37.504 20.0974C37.632 20.2254 37.696 20.2894 37.824 20.3534C38.4 20.6734 39.232 20.6094 39.744 20.0974C40.064 19.7774 40.192 19.3934 40.192 19.0094C40.192 18.5614 40 18.1774 39.744 17.9214L33.088 11.2654C32.64 10.8174 31.936 10.6894 31.36 10.9454C31.168 11.0094 30.976 11.1374 30.848 11.2654L24.32 17.8574C24 18.1774 23.872 18.5614 23.872 18.9454C23.872 19.3934 24.064 19.7774 24.32 20.0334C24.832 20.5454 25.664 20.6094 26.24 20.2254C26.368 20.1614 26.432 20.0974 26.56 20.0334L30.464 16.1294V25.8574C30.464 26.6254 30.336 27.3934 30.08 28.0974C29.952 28.4174 29.824 28.7374 29.696 29.0574C29.376 29.6334 28.992 30.1454 28.544 30.6574C27.648 31.6174 26.496 32.2574 25.28 32.5774C24.512 29.4414 21.696 27.2014 18.368 27.2014C14.464 27.2014 11.264 30.4014 11.264 34.3054C11.264 38.2094 14.464 41.4094 18.368 41.4094C21.76 41.4094 24.704 38.9774 25.344 35.7134C27.264 35.3934 29.056 34.4974 30.464 33.1534V39.2334C27.456 40.1294 25.28 42.8814 25.28 46.0814C25.28 49.9854 28.48 53.1854 32.384 53.1854C36.288 53.1854 39.488 49.9854 39.488 46.0814C39.488 42.6254 36.928 39.6174 33.536 39.0414V33.1534C34.944 34.4974 36.736 35.3934 38.656 35.7774C39.296 39.0414 42.24 41.4734 45.632 41.4734C49.536 41.4734 52.736 38.2734 52.736 34.3694C52.736 30.4654 49.6 27.1374 45.696 27.1374ZM45.696 38.2734C43.52 38.2734 41.664 36.4814 41.664 34.2414C41.664 32.0014 43.456 30.2094 45.696 30.2094C47.936 30.2094 49.728 32.0014 49.728 34.2414C49.728 36.4814 47.872 38.2734 45.696 38.2734ZM36.416 46.0174C36.416 48.1934 34.624 50.0494 32.384 50.0494C30.208 50.0494 28.352 48.2574 28.352 46.0174C28.352 43.7774 30.144 41.9854 32.384 41.9854C34.56 42.0494 36.416 43.8414 36.416 46.0174ZM22.336 34.3054C22.336 36.5454 20.544 38.3374 18.304 38.3374C16.064 38.3374 14.272 36.5454 14.272 34.3054C14.272 32.0654 16.064 30.2734 18.304 30.2734C20.544 30.2734 22.336 32.0654 22.336 34.3054Z" fill="#4B5563"/>
</svg>
