<svg width="64" height="64" viewBox="0 0 64 64" fill="none" xmlns="http://www.w3.org/2000/svg">
<path d="M40.64 16.3198C37.44 16.3198 34.496 17.2798 32 18.9438C29.504 17.2798 26.56 16.3198 23.36 16.3198C14.72 16.3198 7.67999 23.3598 7.67999 31.9998C7.67999 40.6398 14.72 47.6798 23.36 47.6798C26.56 47.6798 29.504 46.7198 32 45.0558C34.496 46.7198 37.44 47.6798 40.64 47.6798C49.28 47.6798 56.32 40.6398 56.32 31.9998C56.32 23.3598 49.216 16.3198 40.64 16.3198ZM34.624 27.3278H29.376C30.016 25.8558 30.912 24.5118 32 23.4238C33.088 24.5118 33.984 25.8558 34.624 27.3278ZM32 40.6398C30.976 39.6158 30.144 38.3998 29.504 37.0558H34.432C33.856 38.3998 33.024 39.6158 32 40.6398ZM35.584 31.9998C35.584 32.5118 35.52 33.0878 35.456 33.5998H28.544C28.48 33.0878 28.416 32.5758 28.416 31.9998C28.416 31.5518 28.416 31.1678 28.48 30.7838H35.52C35.584 31.1678 35.584 31.5518 35.584 31.9998ZM11.2 31.9998C11.2 25.2798 16.64 19.7758 23.424 19.7758C25.536 19.7758 27.52 20.2878 29.248 21.2478C26.56 24.1278 24.96 27.8398 24.96 31.9998C24.96 36.1598 26.56 39.8718 29.184 42.6878C27.456 43.6478 25.472 44.1598 23.36 44.1598C16.64 44.2238 11.2 38.7198 11.2 31.9998ZM40.64 44.2238C38.528 44.2238 36.544 43.7118 34.816 42.7518C37.44 39.8718 39.04 36.1598 39.04 31.9998C39.04 27.8398 37.44 24.1278 34.816 21.3118C36.544 20.3518 38.528 19.8398 40.64 19.8398C47.36 19.8398 52.864 25.2798 52.864 32.0638C52.864 38.8478 47.36 44.2238 40.64 44.2238Z" fill="#4B5563"/>
</svg>
