<svg width="66" height="64" viewBox="0 0 66 64" fill="none" xmlns="http://www.w3.org/2000/svg">
<path d="M2.91806 12.6763C1.67935 13.6672 0.936127 15.1537 0.853546 16.8053V47.2775C0.936127 48.8466 1.67935 50.4156 2.91806 51.4066C4.23935 52.5627 5.72581 53.3885 7.37742 53.9666C11.7542 55.453 16.3787 56.1963 21.0032 56.1137C25.6277 56.1963 30.2523 55.453 34.629 53.9666C36.2806 53.3885 37.7671 52.4801 39.0884 51.4066C40.3271 50.4156 41.0703 48.8466 41.1529 47.2775V16.8053C41.0703 15.2363 40.3271 13.7498 39.0884 12.6763C37.7671 11.5201 36.2806 10.6943 34.629 10.0337C30.2523 8.54722 25.6277 7.80399 21.0032 7.88658C16.3787 7.80399 11.7542 8.54722 7.37742 10.0337C5.80839 10.6117 4.23935 11.5201 2.91806 12.6763ZM21.0858 11.6027C25.2974 11.5201 29.4265 12.1808 33.3903 13.5021C34.629 13.915 35.7026 14.5756 36.6935 15.4014C37.1065 15.7317 37.3542 16.1446 37.5194 16.5575C37.3542 17.1356 36.9413 17.6311 36.4458 18.044C35.3723 18.7872 34.2161 19.4479 32.9774 19.8608C29.0961 21.0995 25.1323 21.6775 21.0858 21.6775C17.0394 21.7601 12.9929 21.1821 9.19419 19.8608C7.95548 19.4479 6.79935 18.8698 5.72581 18.044C5.23032 17.7137 4.81742 17.2182 4.65226 16.6401C4.81742 16.1446 5.06516 15.7317 5.47806 15.484C6.46903 14.6582 7.62516 13.9975 8.78129 13.5846C12.7452 12.1808 16.8742 11.5201 21.0858 11.6027ZM21.0858 41.9098C17.0394 41.9924 12.9929 41.3317 9.11161 40.093C7.8729 39.6801 6.71677 39.1021 5.72581 38.2763C5.23032 37.9459 4.9 37.4504 4.65226 36.955C4.65226 36.8724 4.65226 36.8724 4.65226 36.7898V32.3305C5.64322 32.9085 6.71677 33.404 7.8729 33.8169C12.1671 35.2208 16.6265 35.8814 21.0858 35.8814C25.5452 35.964 30.0871 35.3034 34.2987 33.8169C35.4548 33.404 36.5284 32.9085 37.5194 32.3305V36.8724V37.0375C37.2716 37.533 36.9413 38.0285 36.4458 38.3588C35.4548 39.1021 34.2987 39.7627 33.06 40.1756C29.1787 41.3317 25.1323 41.9924 21.0858 41.9098ZM4.65226 21.8427C5.72581 22.4208 6.79935 22.9988 7.95548 23.3292C12.1671 24.733 16.6265 25.3937 21.0858 25.3111C25.5452 25.3937 30.0045 24.733 34.2161 23.3292C35.3723 22.9163 36.4458 22.4208 37.5194 21.8427V27.0453V27.2105C37.3542 27.7059 36.9413 28.2014 36.4458 28.5317C35.3723 29.275 34.2987 29.9356 33.06 30.3485C29.1787 31.5872 25.1323 32.2479 21.0858 32.1653C17.0394 32.2479 12.9929 31.5872 9.11161 30.3485C7.8729 29.9356 6.71677 29.3575 5.72581 28.5317C5.23032 28.2014 4.9 27.7059 4.65226 27.2105C4.65226 27.1279 4.65226 27.1279 4.65226 27.0453V21.8427ZM34.2987 43.644C35.4548 43.2311 36.5284 42.7356 37.5194 42.1575V47.2775C37.4368 47.8556 37.1065 48.3511 36.6935 48.5988C35.7026 49.4246 34.5465 50.0853 33.3903 50.4982C29.4265 51.8195 25.2974 52.4801 21.0858 52.4801C16.8742 52.5627 12.7452 51.9021 8.78129 50.4982C7.54258 50.0853 6.46903 49.4246 5.47806 48.5988C5.06516 48.2685 4.73484 47.773 4.65226 47.2775V42.1575C5.64322 42.7356 6.71677 43.2311 7.8729 43.644C12.1671 45.0479 16.6265 45.7085 21.0858 45.7085C25.5452 45.7085 30.0871 45.0479 34.2987 43.644Z" fill="#4B5563"/>
<path d="M32.8948 25.4761C32.1516 25.4761 31.5736 26.0541 31.5736 26.7974C31.5736 27.5406 32.1516 28.1187 32.8948 28.1187C33.6381 28.1187 34.2161 27.5406 34.2161 26.7974C34.2161 26.0541 33.5555 25.4761 32.8948 25.4761Z" fill="#4B5563"/>
<path d="M32.8948 35.9639C32.1516 35.9639 31.5736 36.5419 31.5736 37.2852C31.5736 38.0284 32.1516 38.6064 32.8948 38.6064C33.6381 38.6064 34.2161 38.0284 34.2161 37.2852C34.1336 36.5419 33.5555 35.9639 32.8948 35.9639Z" fill="#4B5563"/>
<path d="M32.8948 48.3511C33.6381 48.3511 34.2161 47.773 34.2161 47.0298C34.2161 46.2866 33.6381 45.7085 32.8948 45.7085C32.1516 45.7085 31.5736 46.2866 31.5736 47.0298C31.5736 47.773 32.1516 48.3511 32.8948 48.3511Z" fill="#4B5563"/>
<path d="M49.9516 43.4137C49.3736 43.4137 48.7129 43.2486 48.1348 43.0008C46.8961 42.3402 46.1529 41.1015 46.1529 39.6976V24.3376C46.1529 22.9337 46.8961 21.695 48.1348 21.0344C49.3736 20.3737 50.86 20.4563 52.0161 21.1996L63.4948 28.8796C64.5684 29.5402 65.1465 30.7789 65.1465 32.0176C65.1465 33.2563 64.4858 34.495 63.4948 35.1557L52.0161 42.8357C51.4381 43.2486 50.6948 43.4137 49.9516 43.4137ZM50.2819 25.0808V39.037L60.7697 32.0176L50.2819 25.0808Z" fill="#374151"/>
</svg>
