<svg width="64" height="64" viewBox="0 0 64 64" fill="none" xmlns="http://www.w3.org/2000/svg">
<path d="M27.136 17.0239C26.176 17.7919 25.6 18.9439 25.536 20.2239V43.8399C25.6 45.0559 26.176 46.2719 27.136 47.0399C28.16 47.9359 29.312 48.5759 30.592 49.0239C33.984 50.1759 37.568 50.7519 41.152 50.6879C44.736 50.7519 48.32 50.1759 51.712 49.0239C52.992 48.5759 54.144 47.8719 55.168 47.0399C56.128 46.2719 56.704 45.0559 56.768 43.8399V20.2239C56.704 19.0079 56.128 17.8559 55.168 17.0239C54.144 16.1279 52.992 15.4879 51.712 14.9759C48.32 13.8239 44.736 13.2479 41.152 13.3119C37.568 13.2479 33.984 13.8239 30.592 14.9759C29.376 15.4239 28.16 16.1279 27.136 17.0239ZM41.216 16.1919C44.48 16.1279 47.68 16.6399 50.752 17.6639C51.712 17.9839 52.544 18.4959 53.312 19.1359C53.632 19.3919 53.824 19.7119 53.952 20.0319C53.824 20.4799 53.504 20.8639 53.12 21.1839C52.288 21.7599 51.392 22.2719 50.432 22.5919C47.424 23.5519 44.352 23.9999 41.216 23.9999C38.08 24.0639 34.944 23.6159 32 22.5919C31.04 22.2719 30.144 21.8239 29.312 21.1839C28.928 20.9279 28.608 20.5439 28.48 20.0959C28.608 19.7119 28.8 19.3919 29.12 19.1999C29.888 18.5599 30.784 18.0479 31.68 17.7279C34.752 16.6399 37.952 16.1279 41.216 16.1919ZM41.216 39.6799C38.08 39.7439 34.944 39.2319 31.936 38.2719C30.976 37.9519 30.08 37.5039 29.312 36.8639C28.928 36.6079 28.672 36.2239 28.48 35.8399C28.48 35.7759 28.48 35.7759 28.48 35.7119V32.2559C29.248 32.7039 30.08 33.0879 30.976 33.4079C34.304 34.4959 37.76 35.0079 41.216 35.0079C44.672 35.0719 48.192 34.5599 51.456 33.4079C52.352 33.0879 53.184 32.7039 53.952 32.2559V35.7759V35.9039C53.76 36.2879 53.504 36.6719 53.12 36.9279C52.352 37.5039 51.456 38.0159 50.496 38.3359C47.488 39.2319 44.352 39.7439 41.216 39.6799ZM28.48 24.1279C29.312 24.5759 30.144 25.0239 31.04 25.2799C34.304 26.3679 37.76 26.8799 41.216 26.8159C44.672 26.8799 48.128 26.3679 51.392 25.2799C52.288 24.9599 53.12 24.5759 53.952 24.1279V28.1599V28.2879C53.824 28.6719 53.504 29.0559 53.12 29.3119C52.288 29.8879 51.456 30.3999 50.496 30.7199C47.488 31.6799 44.352 32.1919 41.216 32.1279C38.08 32.1919 34.944 31.6799 31.936 30.7199C30.976 30.3999 30.08 29.9519 29.312 29.3119C28.928 29.0559 28.672 28.6719 28.48 28.2879C28.48 28.2239 28.48 28.2239 28.48 28.1599V24.1279ZM51.456 41.0239C52.352 40.7039 53.184 40.3199 53.952 39.8719V43.8399C53.888 44.2879 53.632 44.6719 53.312 44.8639C52.544 45.5039 51.648 46.0159 50.752 46.3359C47.68 47.3599 44.48 47.8719 41.216 47.8719C37.952 47.9359 34.752 47.4239 31.68 46.3359C30.72 46.0159 29.888 45.5039 29.12 44.8639C28.8 44.6079 28.544 44.2239 28.48 43.8399V39.8719C29.248 40.3199 30.08 40.7039 30.976 41.0239C34.304 42.1119 37.76 42.6239 41.216 42.6239C44.672 42.6239 48.192 42.1119 51.456 41.0239Z" fill="#4B5563"/>
<path d="M50.368 26.9438C49.792 26.9438 49.344 27.3918 49.344 27.9678C49.344 28.5438 49.792 28.9918 50.368 28.9918C50.944 28.9918 51.392 28.5438 51.392 27.9678C51.392 27.3918 50.88 26.9438 50.368 26.9438Z" fill="#4B5563"/>
<path d="M50.368 35.0718C49.792 35.0718 49.344 35.5198 49.344 36.0958C49.344 36.6718 49.792 37.1198 50.368 37.1198C50.944 37.1198 51.392 36.6718 51.392 36.0958C51.328 35.5198 50.88 35.0718 50.368 35.0718Z" fill="#4B5563"/>
<path d="M50.368 44.672C50.944 44.672 51.392 44.224 51.392 43.648C51.392 43.072 50.944 42.624 50.368 42.624C49.792 42.624 49.344 43.072 49.344 43.648C49.344 44.224 49.792 44.672 50.368 44.672Z" fill="#4B5563"/>
<path d="M10.176 40.8318C9.72799 40.8318 9.21599 40.7038 8.76799 40.5118C7.80799 39.9998 7.23199 39.0398 7.23199 37.9518V26.0478C7.23199 24.9598 7.80799 23.9998 8.76799 23.4878C9.72799 22.9758 10.88 23.0398 11.776 23.6158L20.672 29.5678C21.504 30.0798 21.952 31.0398 21.952 31.9998C21.952 32.9598 21.44 33.9198 20.672 34.4318L11.776 40.3838C11.328 40.7038 10.752 40.8318 10.176 40.8318ZM10.496 26.6238V37.4398L18.56 31.9998L10.496 26.6238Z" fill="#4B5563"/>
</svg>
