<svg width="70" height="70" viewBox="0 0 70 70" fill="none" xmlns="http://www.w3.org/2000/svg">
<path d="M35 30.3162C34.0334 30.3162 33.06 30.2465 32.1057 30.1084C31.1336 29.9703 30.1602 29.7557 29.2113 29.4727C28.2065 29.1705 27.233 28.7959 26.317 28.357C25.7387 28.0836 25.1535 27.7691 24.5766 27.4219C24.1842 27.1867 23.7959 26.9352 23.424 26.6727C22.5066 26.0342 21.6357 25.3123 20.8359 24.5275C20.7457 24.4414 20.6514 24.3457 20.5297 24.2199C19.7518 23.4297 19.0299 22.5588 18.3846 21.6332C18.1084 21.2422 17.8637 20.8648 17.6354 20.4807C17.3031 19.9324 16.9873 19.3459 16.6975 18.7389C16.2531 17.8078 15.8785 16.833 15.5846 15.8445C15.3029 14.9094 15.0897 13.9359 14.9488 12.9502L14.9461 12.9352C14.8736 12.4307 15.024 11.9221 15.3576 11.5379C15.6967 11.1455 16.1889 10.9213 16.7084 10.9213H18.9984C19.8707 10.9213 20.6076 11.5502 20.7512 12.417C20.7799 12.592 20.8127 12.7684 20.8496 12.9447C21.0492 13.9346 21.3582 14.9066 21.7656 15.8336C22.2086 16.8494 22.7746 17.8188 23.4486 18.7156L23.4514 18.7197V18.7211C24.269 19.8094 25.2397 20.7787 26.3334 21.6031L26.3402 21.6086L26.3416 21.61C27.2289 22.2785 28.1982 22.8445 29.2209 23.293C30.141 23.6963 31.1131 24.0053 32.1098 24.209C33.0531 24.4018 34.0252 24.4988 34.9986 24.4988C35.9721 24.4988 36.9441 24.4018 37.8875 24.209C38.8856 24.0039 39.8576 23.6963 40.7764 23.293C41.799 22.8445 42.7684 22.2785 43.6543 21.61L43.6584 21.6059H43.6625V21.6031C44.759 20.7787 45.7283 19.8094 46.5459 18.7211L46.55 18.7143C47.224 17.8174 47.79 16.848 48.233 15.8322C48.6404 14.9053 48.9494 13.9332 49.149 12.9434C49.1846 12.767 49.2174 12.5906 49.2461 12.4156C49.3897 11.5488 50.1266 10.9199 50.9988 10.9199H53.2889C53.807 10.9199 54.2992 11.1441 54.6397 11.5365C54.9732 11.9207 55.1236 12.4293 55.0512 12.9283L55.0484 12.9475C54.909 13.9291 54.6957 14.9025 54.4154 15.8418C54.1174 16.8344 53.7428 17.8078 53.2998 18.7361C53.01 19.3432 52.6955 19.9297 52.3619 20.4779C52.135 20.8621 51.8889 21.2381 51.6141 21.6305C50.9674 22.5561 50.2455 23.4256 49.4676 24.2172C49.3678 24.3211 49.2639 24.425 49.1613 24.5248C48.3615 25.3096 47.4906 26.0314 46.5732 26.6713C46.1918 26.9365 45.8049 27.1895 45.4207 27.4191C44.8342 27.7719 44.2477 28.0863 43.6803 28.3543C42.7602 28.7945 41.7867 29.1691 40.7859 29.4672C39.8385 29.7516 38.8637 29.9662 37.8916 30.1057C36.9373 30.2437 35.9639 30.3135 34.9973 30.3135L35 30.3162Z" fill="#374151"/>
<path d="M53.2916 10.9375C54.3553 10.9375 55.1879 11.8754 55.0361 12.9268C55.0361 12.9336 55.0348 12.9404 55.0334 12.9459C54.8926 13.9344 54.6807 14.901 54.4004 15.8375C54.101 16.8342 53.7277 17.8021 53.2861 18.7291C53.0018 19.3252 52.69 19.909 52.3496 20.4695C52.1158 20.8646 51.8656 21.2461 51.6018 21.6207C50.9605 22.5395 50.2428 23.4076 49.458 24.2047C49.3582 24.3086 49.2543 24.4125 49.1518 24.5123C48.352 25.2971 47.4865 26.0148 46.565 26.6561C46.1918 26.9158 45.8063 27.1674 45.4139 27.4039C44.8506 27.7416 44.2709 28.0561 43.6748 28.3377C42.7465 28.782 41.7799 29.1525 40.7832 29.4492C39.8439 29.7309 38.8801 29.9455 37.8916 30.0863C36.9482 30.223 35.9816 30.2941 35 30.2941C34.0184 30.2941 33.0504 30.223 32.1084 30.0863C31.1199 29.9455 30.1533 29.7309 29.2168 29.4506C28.2201 29.1512 27.2521 28.7807 26.3252 28.3363C25.7291 28.0547 25.148 27.7402 24.5861 27.4025C24.191 27.166 23.8082 26.9172 23.435 26.6547C22.5135 26.0135 21.648 25.2957 20.8482 24.5109C20.7443 24.4111 20.6418 24.3072 20.542 24.2033C19.7572 23.4049 19.0395 22.5381 18.3982 21.6193C18.1344 21.2447 17.8842 20.8633 17.6504 20.4682C17.31 19.9063 16.9982 19.3238 16.7139 18.7277C16.2723 17.7994 15.899 16.8328 15.6023 15.8361C15.3207 14.8996 15.1074 13.933 14.9666 12.9445C14.9666 12.9377 14.9652 12.9309 14.9639 12.9254C14.8121 11.8727 15.6461 10.9361 16.7084 10.9361H18.9984C19.8625 10.9361 20.5939 11.565 20.7348 12.4168C20.7635 12.5945 20.7963 12.7709 20.8332 12.9445C21.0369 13.9521 21.3473 14.9201 21.7506 15.8361C22.199 16.8656 22.7678 17.8322 23.435 18.7223V18.7291H23.4391C24.2607 19.8215 25.2342 20.7936 26.3252 21.6152V21.6221H26.3334C27.2207 22.2893 28.1873 22.8553 29.2168 23.3064C30.1355 23.7098 31.1035 24.0174 32.1084 24.2238C33.0422 24.4152 34.0102 24.5137 35 24.5137C35.9898 24.5137 36.9578 24.4139 37.8916 24.2238C38.8951 24.0174 39.8645 23.7098 40.7832 23.3064C41.8113 22.8553 42.7779 22.2893 43.6639 21.6221H43.6748V21.6152C44.7658 20.7936 45.7393 19.8229 46.5609 18.7291H46.565V18.7223C47.2322 17.8336 47.801 16.867 48.2494 15.8361C48.6527 14.9188 48.9631 13.9521 49.1668 12.9445C49.2023 12.7695 49.2352 12.5932 49.2652 12.4168C49.4061 11.5637 50.1375 10.9361 51.0016 10.9361H53.2916M53.2916 10.9033H51.0016C50.1211 10.9033 49.376 11.5377 49.2311 12.4127C49.2023 12.5877 49.1695 12.7654 49.134 12.9404C48.9344 13.9289 48.6268 14.8996 48.2193 15.8252C47.7777 16.8396 47.2117 17.8076 46.5391 18.7045L46.5322 18.7141C45.716 19.7996 44.7481 20.7676 43.657 21.5893H43.6543L43.6447 21.5961C42.7602 22.2633 41.7922 22.8279 40.7709 23.2764C39.8535 23.6783 38.8828 23.9873 37.8861 24.191C36.9441 24.3838 35.9734 24.4809 35.0014 24.4809C34.0293 24.4809 33.0586 24.3838 32.1166 24.191C31.1213 23.9873 30.1506 23.6797 29.2318 23.2764C28.2092 22.8279 27.2412 22.2633 26.3553 21.5961L26.3457 21.5893C25.2533 20.7662 24.284 19.7969 23.4678 18.7113L23.4637 18.7072C22.791 17.809 22.225 16.841 21.7834 15.8266C21.376 14.8996 21.0684 13.9303 20.8688 12.9418C20.8332 12.7682 20.8004 12.5904 20.7717 12.4141C20.6268 11.5391 19.883 10.9047 19.0012 10.9047H16.7111C16.1875 10.9047 15.6912 11.1316 15.348 11.5268C15.0117 11.915 14.86 12.4277 14.9324 12.9336L14.9352 12.9527C15.076 13.9398 15.2893 14.9146 15.5709 15.8498C15.8662 16.8396 16.2408 17.8145 16.6852 18.7469C16.975 19.3553 17.2908 19.9418 17.623 20.49C17.8514 20.8756 18.0961 21.2516 18.3723 21.6426C19.0189 22.5682 19.7408 23.4391 20.5201 24.2307C20.6418 24.3564 20.7361 24.4521 20.8264 24.5396C21.6262 25.3244 22.4984 26.0477 23.4172 26.6875C23.7891 26.9486 24.1773 27.2016 24.5697 27.4367C25.1467 27.784 25.7318 28.0984 26.3115 28.3732C27.2275 28.8121 28.2023 29.1881 29.2086 29.4889C30.1588 29.7719 31.1322 29.9865 32.1057 30.1246C33.0613 30.2627 34.0348 30.3324 35.0027 30.3324C35.9707 30.3324 36.9441 30.2627 37.8998 30.1246C38.8732 29.9865 39.848 29.7705 40.7969 29.4861C41.799 29.1881 42.7738 28.8135 43.6939 28.3719C44.2627 28.1039 44.8479 27.7881 45.4357 27.4354C45.8199 27.2043 46.2082 26.9514 46.5883 26.6861C47.507 26.0463 48.3779 25.3244 49.1791 24.5383C49.2953 24.4248 49.3951 24.3236 49.4854 24.2293C50.2633 23.4377 50.9865 22.5668 51.6332 21.6412C51.9094 21.2502 52.1541 20.8729 52.3824 20.4873C52.7147 19.9377 53.0305 19.3512 53.3203 18.7441C53.7633 17.8158 54.1379 16.841 54.4359 15.8471C54.7162 14.9064 54.9295 13.9316 55.0703 12.95L55.0731 12.9309C55.1455 12.4264 54.9938 11.9137 54.6574 11.5254C54.3143 11.1303 53.818 10.9033 53.2943 10.9033H53.2916Z" fill="#374151"/>
<path d="M51.0016 59.079C50.1293 59.079 49.3924 58.4501 49.2488 57.5833C49.2201 57.4083 49.1873 57.2306 49.1518 57.0556C48.9522 56.0657 48.6432 55.095 48.2357 54.1667C47.7928 53.1522 47.2268 52.1815 46.5527 51.2847L46.5486 51.2806V51.2792C45.7311 50.1909 44.7604 49.2216 43.6666 48.3972L43.6598 48.3917L43.6584 48.3903C42.7711 47.7218 41.8018 47.1558 40.7791 46.7073C39.859 46.304 38.8869 45.995 37.8902 45.7913C36.9469 45.5985 35.9762 45.5015 35.0014 45.5015C34.0266 45.5015 33.0559 45.5985 32.1125 45.7913C31.1145 45.9964 30.1424 46.304 29.2236 46.7073C28.201 47.1558 27.2316 47.7218 26.3457 48.3903L26.3416 48.3944H26.3375V48.3972C25.241 49.2216 24.2717 50.1909 23.4541 51.2792L23.45 51.286C22.776 52.1829 22.21 53.1536 21.767 54.1681C21.3596 55.095 21.0506 56.0671 20.851 57.0569C20.8154 57.2333 20.7826 57.4097 20.7525 57.5847C20.609 58.4515 19.8721 59.0804 18.9998 59.0804H16.7098C16.1916 59.0804 15.6994 58.8562 15.359 58.4638C15.0254 58.0782 14.875 57.571 14.9475 57.0706L14.9502 57.0515C15.0897 56.0698 15.3029 55.0964 15.5832 54.1571C15.8813 53.1645 16.2559 52.1911 16.6988 51.2628C16.9887 50.6558 17.3031 50.0692 17.6367 49.521C17.865 49.1368 18.1098 48.7595 18.3859 48.3685C19.0326 47.4429 19.7545 46.5733 20.5311 45.7817C20.6309 45.6778 20.7348 45.5739 20.8373 45.4741C21.6371 44.6894 22.508 43.9675 23.4254 43.3276C23.8055 43.0624 24.1924 42.8108 24.5779 42.5784C25.1658 42.2257 25.751 41.9112 26.3184 41.6433C27.2385 41.203 28.2119 40.8284 29.2127 40.5304C30.1602 40.246 31.135 40.0313 32.107 39.8919C33.0613 39.7538 34.0348 39.6841 35.0014 39.6841C35.968 39.6841 36.9414 39.7538 37.8957 39.8919C38.8678 40.03 39.8426 40.2446 40.79 40.5276C41.7949 40.8298 42.7684 41.2044 43.6844 41.6433C44.2613 41.9167 44.8465 42.2312 45.4248 42.5784C45.8186 42.8136 46.2055 43.0665 46.5773 43.3276C47.4947 43.9675 48.3656 44.6894 49.1654 45.4741C49.2557 45.5603 49.3527 45.6587 49.4717 45.7817C50.2496 46.572 50.9715 47.4429 51.6168 48.3685C51.893 48.7595 52.1377 49.1368 52.366 49.521C52.6996 50.0706 53.0141 50.6571 53.3039 51.2628C53.7482 52.1952 54.1229 53.1687 54.4168 54.1571C54.6984 55.0909 54.9117 56.0657 55.0525 57.0515L55.0553 57.0665C55.1277 57.571 54.9773 58.0782 54.6438 58.4638C54.3047 58.8562 53.8125 59.0804 53.293 59.0804H51.0029L51.0016 59.079Z" fill="#374151"/>
<path d="M35 39.7017C35.9816 39.7017 36.9496 39.7728 37.8916 39.9095C38.8801 40.0503 39.8467 40.2649 40.7832 40.5452C41.7799 40.8446 42.7479 41.2151 43.6748 41.6595C44.2709 41.9411 44.852 42.2556 45.4139 42.5933C45.809 42.8298 46.1918 43.0786 46.565 43.3411C47.4865 43.9823 48.352 44.7001 49.1518 45.4849C49.2557 45.5847 49.3582 45.6886 49.458 45.7925C50.2428 46.5909 50.9605 47.4577 51.6018 48.3765C51.8656 48.7511 52.1158 49.1325 52.3496 49.5276C52.69 50.0895 53.0018 50.672 53.2861 51.2681C53.7277 52.1964 54.101 53.163 54.3977 54.1597C54.6793 55.0962 54.8926 56.0628 55.0334 57.0513C55.0334 57.0581 55.0348 57.0649 55.0361 57.0704C55.1879 58.1231 54.3539 59.0597 53.2916 59.0597H51.0016C50.1375 59.0597 49.4061 58.4308 49.2652 57.579C49.2365 57.4013 49.2037 57.2249 49.1668 57.0513C48.9631 56.0436 48.6527 55.0757 48.2494 54.1597C47.801 53.1302 47.2322 52.1636 46.565 51.2735V51.2667H46.5609C45.7393 50.1743 44.7658 49.2022 43.6748 48.3806V48.3737H43.6666C42.7793 47.7065 41.8127 47.1405 40.7832 46.6894C39.8645 46.286 38.8965 45.9784 37.8916 45.772C36.9578 45.5806 35.9898 45.4821 35 45.4821C34.0102 45.4821 33.0422 45.5819 32.1084 45.772C31.1049 45.9784 30.1355 46.286 29.2168 46.6894C28.1887 47.1405 27.2221 47.7065 26.3361 48.3737H26.3252V48.3806C25.2342 49.2022 24.2607 50.1729 23.4391 51.2667H23.435V51.2735C22.7678 52.1622 22.199 53.1288 21.7506 54.1597C21.3473 55.077 21.0369 56.0436 20.8332 57.0513C20.7977 57.2263 20.7648 57.4026 20.7348 57.579C20.5939 58.4321 19.8625 59.0597 18.9984 59.0597H16.7084C15.6447 59.0597 14.8121 58.1218 14.9639 57.0704C14.9639 57.0636 14.9652 57.0567 14.9666 57.0513C15.1074 56.0628 15.3193 55.0962 15.5996 54.1597C15.899 53.163 16.2723 52.195 16.7139 51.2681C16.9982 50.672 17.31 50.0882 17.6504 49.5276C17.8842 49.1325 18.1344 48.7511 18.3982 48.3765C19.0395 47.4577 19.7572 46.5895 20.542 45.7925C20.6418 45.6886 20.7457 45.5847 20.8482 45.4849C21.6481 44.7001 22.5135 43.9823 23.435 43.3411C23.8082 43.0813 24.1938 42.8298 24.5861 42.5933C25.1494 42.2556 25.7291 41.9411 26.3252 41.6595C27.2535 41.2151 28.2201 40.8446 29.2168 40.5479C30.1561 40.2663 31.1199 40.0517 32.1084 39.9108C33.0518 39.7741 34.0184 39.703 35 39.703M35 39.6675C34.0334 39.6675 33.0586 39.7372 32.1029 39.8753C31.1295 40.0134 30.1547 40.2294 29.2059 40.5138C28.2037 40.8118 27.2289 41.1864 26.3088 41.628C25.74 41.896 25.1549 42.2118 24.567 42.5645C24.1828 42.7956 23.7945 43.0485 23.4145 43.3138C22.4957 43.9536 21.6248 44.6755 20.8236 45.4616C20.7074 45.5751 20.6076 45.6763 20.5174 45.7706C19.7395 46.5622 19.0162 47.4331 18.3695 48.3587C18.0934 48.7497 17.8486 49.127 17.6203 49.5126C17.2881 50.0622 16.9723 50.6487 16.6824 51.2558C16.2395 52.1841 15.8648 53.1589 15.5668 54.1528C15.2865 55.0935 15.0732 56.0683 14.9324 57.0499L14.9297 57.069C14.8572 57.5735 15.009 58.0862 15.3453 58.4745C15.6885 58.8696 16.1848 59.0966 16.7084 59.0966H18.9984C19.8789 59.0966 20.624 58.4622 20.7689 57.5872C20.7977 57.4122 20.8305 57.2345 20.866 57.0595C21.0656 56.071 21.3732 55.1003 21.7807 54.1747C22.2223 53.1603 22.7883 52.1923 23.4609 51.2954L23.4678 51.2858C24.284 50.2003 25.252 49.2323 26.343 48.4106H26.3457L26.3553 48.4038C27.2398 47.7366 28.2078 47.172 29.2291 46.7235C30.1465 46.3216 31.1172 46.0126 32.1139 45.8089C33.0559 45.6161 34.0266 45.519 34.9986 45.519C35.9707 45.519 36.9414 45.6161 37.8834 45.8089C38.8787 46.0126 39.8494 46.3202 40.7682 46.7235C41.7908 47.172 42.7588 47.7366 43.6447 48.4038L43.6543 48.4106C44.7467 49.2337 45.716 50.203 46.5322 51.2886L46.5363 51.2927C47.209 52.1909 47.775 53.1589 48.2166 54.1733C48.624 55.1003 48.9316 56.0696 49.1313 57.0581C49.1668 57.2331 49.1996 57.4095 49.2283 57.5858C49.3732 58.4608 50.117 59.0952 50.9988 59.0952H53.2889C53.8125 59.0952 54.3088 58.8683 54.652 58.4731C54.9883 58.0849 55.14 57.5722 55.0676 57.0663L55.0648 57.0472C54.924 56.0601 54.7107 55.0866 54.4291 54.1501C54.1338 53.1603 53.7592 52.1854 53.3148 51.253C53.025 50.6446 52.7092 50.0581 52.377 49.5099C52.1486 49.1243 51.9039 48.7483 51.6277 48.3573C50.9811 47.4317 50.2592 46.5608 49.4799 45.7692C49.3582 45.6435 49.2639 45.5478 49.1736 45.4603C48.3738 44.6755 47.5016 43.9522 46.5828 43.3124C46.2109 43.0513 45.8227 42.7983 45.4303 42.5632C44.8533 42.2159 44.2682 41.9015 43.6885 41.6267C42.7725 41.1878 41.7977 40.8118 40.7914 40.511C39.8412 40.228 38.8678 40.0134 37.8943 39.8753C36.9387 39.7372 35.9652 39.6675 34.9973 39.6675H35Z" fill="#374151"/>
<path d="M17.1637 32.1655H52.835C54.0682 32.1655 55.0703 33.1677 55.0703 34.4009V35.7476C55.0703 36.9808 54.0682 37.9829 52.835 37.9829H17.1637C15.9291 37.9829 14.9283 36.9808 14.9283 35.7476V34.4009C14.9283 33.1663 15.9305 32.1655 17.1637 32.1655Z" fill="#374151"/>
<path d="M52.835 32.1821C54.06 32.1821 55.0539 33.1747 55.0539 34.4011V35.7478C55.0539 36.9728 54.06 37.9667 52.835 37.9667H17.1637C15.9387 37.9667 14.9447 36.9728 14.9447 35.7478V34.4011C14.9447 33.1761 15.9387 32.1821 17.1637 32.1821H52.835ZM52.835 32.1479H17.1637C15.9209 32.1479 14.9106 33.1583 14.9106 34.4011V35.7478C14.9106 36.9905 15.9209 38.0009 17.1637 38.0009H52.835C54.0777 38.0009 55.0881 36.9905 55.0881 35.7478V34.4011C55.0881 33.1583 54.0777 32.1479 52.835 32.1479Z" fill="#374151"/>
<path d="M4.92188 65.6412C4.61153 65.6412 4.3586 65.3883 4.3586 65.0779V4.78359C4.3586 4.54844 4.55 4.3584 4.78379 4.3584H9.84375C10.4563 4.3584 10.9539 4.85742 10.9539 5.46855V5.99766C10.9539 6.61016 10.4549 7.10781 9.84375 7.10781H7.12715V62.8904H9.84512C10.4576 62.8904 10.9553 63.3881 10.9553 64.0006V64.5297C10.9553 65.1422 10.4563 65.6398 9.84512 65.6398H4.92325L4.92188 65.6412Z" fill="#374151"/>
<path d="M9.84376 4.375C10.4481 4.375 10.9375 4.86445 10.9375 5.46875V5.99785C10.9375 6.60215 10.4481 7.0916 9.84376 7.0916H7.10938V62.9084H9.84376C10.4481 62.9084 10.9375 63.3979 10.9375 64.0021V64.5312C10.9375 65.1355 10.4481 65.625 9.84376 65.625H7.10938H4.92188C4.61973 65.625 4.37501 65.3803 4.37501 65.0781V4.78379C4.37501 4.5582 4.55821 4.375 4.7838 4.375H9.84376ZM9.84376 4.34082H4.7838C4.55137 4.34082 4.35997 4.52129 4.34219 4.74961V4.78379V65.0781C4.34219 65.398 4.60333 65.6592 4.92325 65.6592H9.84512C10.4672 65.6592 10.9731 65.1533 10.9731 64.5312V64.0021C10.9731 63.3801 10.4672 62.8742 9.84512 62.8742H7.14493V7.12578H9.84512C10.4672 7.12578 10.9731 6.61992 10.9731 5.99785V5.46875C10.9731 4.84668 10.4672 4.34082 9.84512 4.34082H9.84376Z" fill="#374151"/>
<path d="M60.1562 65.6412C59.5437 65.6412 59.0461 65.1436 59.0461 64.5311V64.002C59.0461 63.3895 59.5437 62.8918 60.1562 62.8918H62.8742V7.10781H60.1562C59.5437 7.10781 59.0461 6.60879 59.0461 5.99766V5.46855C59.0461 4.85605 59.5437 4.3584 60.1562 4.3584H65.2162C65.4514 4.3584 65.6414 4.54981 65.6414 4.78359V65.0779C65.6414 65.3883 65.3885 65.6412 65.0781 65.6412H60.1562Z" fill="#374151"/>
<path d="M65.2162 4.375C65.4418 4.375 65.625 4.5582 65.625 4.78379V65.0781C65.625 65.3803 65.3803 65.625 65.0781 65.625H62.8906H60.1562C59.552 65.625 59.0625 65.1355 59.0625 64.5312V64.0021C59.0625 63.3979 59.552 62.9084 60.1562 62.9084H62.8906V7.0916H60.1562C59.552 7.0916 59.0625 6.60215 59.0625 5.99785V5.46875C59.0625 4.86445 59.552 4.375 60.1562 4.375H65.2162ZM65.2162 4.34082H60.1562C59.5342 4.34082 59.0283 4.84668 59.0283 5.46875V5.99785C59.0283 6.61992 59.5342 7.12578 60.1562 7.12578H62.8564V62.8742H60.1562C59.5342 62.8742 59.0283 63.3801 59.0283 64.0021V64.5312C59.0283 65.1533 59.5342 65.6592 60.1562 65.6592H62.8906H65.0781C65.398 65.6592 65.6592 65.398 65.6592 65.0781V4.74961H65.6578C65.64 4.52129 65.4486 4.34082 65.2162 4.34082Z" fill="#374151"/>
</svg>
