<svg width="24" height="24" viewBox="0 0 24 24" fill="none" xmlns="http://www.w3.org/2000/svg">
<path d="M6.36221 7.72726H10.3145V8.53342H6.36221V7.72726ZM23.0372 20.6757L18.5649 16.1152C18.048 15.5863 17.2703 15.5285 16.666 15.8877L14.2746 13.4484C15.5353 12.0201 16.3075 10.1361 16.3075 8.06323C16.3075 3.60964 12.7697 0 8.40374 0C4.03781 0 0.5 3.60964 0.5 8.06323C0.5 12.516 4.0386 16.1257 8.40374 16.1257C10.1663 16.1257 11.7887 15.5301 13.1037 14.535L15.5495 17.0283C15.1973 17.6463 15.254 18.438 15.7709 18.9669L20.2432 23.5274C20.8601 24.1575 21.8608 24.1575 22.4793 23.5274L23.038 22.9575C23.6541 22.3274 23.6541 21.3058 23.0372 20.6757ZM8.38719 14.0761C5.11334 14.0761 2.45958 11.3691 2.45958 8.02947C2.45958 4.68989 5.11334 1.98285 8.38719 1.98285C11.661 1.98285 14.3156 4.68989 14.3156 8.02947C14.3156 11.3691 11.6618 14.0761 8.38719 14.0761Z" fill="black"/>
</svg>
