<svg width="24" height="25" viewBox="0 0 24 25" fill="none" xmlns="http://www.w3.org/2000/svg">
<path d="M23.5173 23.4836L22.9344 24.0665C22.289 24.7111 21.2448 24.7111 20.6011 24.0665L15.9344 19.4015C15.3951 18.8605 15.3351 18.0499 15.7034 17.4184L13.1514 14.8681C11.7792 15.8859 10.0864 16.4951 8.24716 16.4951C3.69236 16.4951 0 12.8028 0 8.24799C0 3.69318 3.69236 0 8.24716 0C12.8028 0 16.4943 3.69236 16.4943 8.24799C16.4943 10.3684 15.6886 12.2955 14.3731 13.7565L16.8684 16.2518C17.4998 15.8843 18.3105 15.9435 18.8498 16.4845L23.5165 21.1494C24.161 21.7948 24.161 22.8398 23.5173 23.4836ZM14.4175 8.21428C14.4175 4.79817 11.6476 2.02911 8.23154 2.02911C4.81544 2.02911 2.04555 4.79735 2.04555 8.21428C2.04555 11.6312 4.81461 14.3994 8.23072 14.3994C11.6468 14.3994 14.4175 11.6304 14.4175 8.21428ZM8.59165 10.3272H7.76702V8.72978H6.11775V7.90514H7.76702V6.25505H8.59165V7.90514H10.2417V8.72978H8.59165V10.3272Z" fill="black"/>
</svg>
