<svg width="24" height="25" viewBox="0 0 24 25" fill="none" xmlns="http://www.w3.org/2000/svg">
<path d="M18.2296 0.0684108C17.9294 0.174755 17.7104 0.356166 17.5478 0.637666C17.3414 1.00049 17.2976 1.25696 17.3851 1.63855C17.4602 1.93882 17.5353 2.03265 18.4674 2.97724L19.4745 3.99689H18.6988C15.1081 4.00315 11.53 5.05408 8.55231 6.98079C6.32534 8.41957 4.23598 10.5465 2.82848 12.7922C1.2646 15.2819 0.313755 18.1657 0.0572772 21.1997C-0.0240449 22.1693 -0.0177893 22.7886 0.0697883 23.1013C0.226177 23.608 0.807943 24.0146 1.38345 24.0146C1.70249 24.0146 2.20293 23.7394 2.40311 23.4516C2.62205 23.1326 2.67835 22.8574 2.68461 22.138C2.68461 20.7242 3.0662 18.7287 3.62294 17.2086C5.91247 10.9531 11.9303 6.68678 18.4736 6.68678H19.4119L18.4986 7.60635C17.9982 8.1193 17.5353 8.63226 17.4727 8.75111C17.3288 9.02636 17.3226 9.64565 17.4602 9.90839C17.5791 10.1273 17.9106 10.4526 18.1358 10.5715C18.2234 10.6153 18.4611 10.6528 18.6675 10.6528C18.9678 10.6591 19.0992 10.6278 19.3244 10.4902C19.6622 10.29 23.7095 6.23638 23.8534 5.96114C24.0035 5.65462 24.041 5.27928 23.9535 4.94774C23.8784 4.67875 23.6845 4.46606 21.6765 2.44552C20.2502 1.013 19.3932 0.193522 19.2243 0.118455C18.949 -0.0191669 18.5299 -0.0379336 18.2296 0.0684108Z" fill="black"/>
</svg>
