<svg width="24" height="24" viewBox="0 0 24 24" fill="none" xmlns="http://www.w3.org/2000/svg">
<path d="M5.89407 0.0342334C5.82663 0.0454743 5.73108 0.101679 5.68612 0.152264C5.59619 0.253432 5.5175 0.759276 4.34844 8.38066C4.23041 9.17877 4.02807 10.4827 3.90442 11.2752C3.78639 12.0733 3.54471 13.6471 3.37047 14.7768C3.20186 15.9065 2.97142 17.3959 2.85901 18.0929L2.66229 19.3575L2.2801 19.7003C1.83046 20.1162 1.42578 20.6952 1.17286 21.3022C0.903079 21.9485 0.813151 22.3139 0.773808 22.9996C0.745705 23.5335 0.751326 23.6122 0.841253 23.7134C0.942422 23.8258 1.02111 23.8258 7.88935 23.8258C13.9033 23.8258 14.8981 23.837 15.2859 23.9101C15.5445 23.9607 16.0391 24 16.4494 24C19.372 23.9944 21.9181 22.1677 22.8961 19.3631C23.3457 18.0816 23.3569 16.3449 22.9242 15.0634C22.3396 13.3379 21.1256 11.9216 19.5519 11.1122C17.7083 10.168 15.7131 10.0893 13.7515 10.8874C13.3468 11.056 13.3468 11.056 13.3187 10.9324C13.3075 10.8705 13.2288 10.3816 13.1557 9.85885C13.0771 9.33052 12.9253 8.31883 12.8129 7.61065C12.352 4.59807 12.2171 3.71003 11.9979 2.29929C11.8743 1.4787 11.7562 0.719933 11.7394 0.613144C11.6888 0.270294 11.6045 0.118541 11.4246 0.0567153C11.256 -0.00511007 6.1751 -0.0219715 5.89407 0.0342334ZM11.0986 1.66418C11.1661 2.12506 11.3066 3.0412 11.4134 3.70441C11.5202 4.36763 11.6045 4.92968 11.6045 4.95216C11.6045 4.98026 10.2781 4.99713 8.65373 4.99713H5.70298V4.8791C5.70298 4.81727 5.78166 4.28894 5.87159 3.71565C5.96714 3.13674 6.09641 2.29929 6.15824 1.84965C6.22006 1.40001 6.28189 0.989717 6.29875 0.933512C6.32685 0.843584 6.48985 0.837963 8.65373 0.837963H10.975L11.0986 1.66418ZM11.7394 5.93575C11.7562 6.02568 11.8574 6.67203 11.9698 7.38583C12.0766 8.09402 12.2677 9.30804 12.3914 10.0837C12.5487 11.101 12.5937 11.5057 12.5487 11.5562C12.5038 11.6124 11.7169 11.6293 8.59191 11.6293H4.69129V11.4719C4.69129 11.3876 4.79246 10.7132 4.91049 9.97126C5.02852 9.22935 5.14655 8.49307 5.16341 8.34132C5.22524 7.89168 5.53998 5.93013 5.56246 5.85144C5.57933 5.80086 6.24816 5.78399 8.64811 5.78399H11.7057L11.7394 5.93575ZM15.0274 12.2532L15.9885 12.8827V14.2709V15.6648L15.196 16.1819L14.4035 16.7046L14.1225 16.6034C13.9651 16.5472 13.4874 16.3618 13.0546 16.1875L12.2621 15.8728L12.0485 15.0859C11.9249 14.6531 11.8012 14.1866 11.7675 14.0461C11.7394 13.9112 11.6719 13.7538 11.627 13.7033C11.5539 13.619 11.5651 13.5796 11.7619 13.3379C12.0148 13.0176 12.5881 12.4836 12.9534 12.2307C13.2063 12.0508 13.9595 11.6349 14.0325 11.6293C14.055 11.6293 14.499 11.9103 15.0274 12.2532ZM19.0629 11.7473C19.6868 12.0115 20.6816 12.804 21.1256 13.3829C21.2717 13.5796 21.2717 13.5965 21.193 13.7538C21.1481 13.8438 20.9907 14.3552 20.8502 14.8948C20.7041 15.4344 20.5748 15.8896 20.5523 15.9065C20.5298 15.929 20.3725 15.9964 20.2038 16.0582C20.0352 16.1201 19.5912 16.2887 19.2203 16.4292C18.8549 16.5697 18.5177 16.6877 18.4783 16.6877C18.439 16.6877 18.04 16.4461 17.5903 16.1426L16.7753 15.603V14.2709V12.9389L17.7477 12.2925C18.276 11.9384 18.7313 11.6405 18.7538 11.6349C18.7706 11.6349 18.9111 11.6799 19.0629 11.7473ZM11.1661 12.8208C10.1937 14.0236 9.71039 15.2489 9.6036 16.817C9.56987 17.2723 9.61484 17.8737 9.72725 18.5594L9.76659 18.7673H7.07438C5.15779 18.7729 4.26413 18.7898 3.97749 18.846C3.69646 18.891 3.56719 18.8966 3.56719 18.8573C3.56719 18.7673 3.87632 16.6821 4.03931 15.6704C4.118 15.1927 4.25851 14.2653 4.35968 13.6077L4.54516 12.4162H8.02424H11.4977L11.1661 12.8208ZM13.0377 17.025C13.3468 17.143 13.7122 17.2891 13.8527 17.351L14.1056 17.4578L14.2967 18.3908C14.3979 18.9135 14.4653 19.3519 14.4372 19.3968C14.4147 19.4362 14.2068 19.7565 13.9763 20.105L13.5604 20.7401L12.8522 20.7064C12.4588 20.6895 11.9811 20.6614 11.7843 20.6446L11.4359 20.6108L11.1998 20.2118C10.9075 19.7059 10.6827 19.1327 10.531 18.5088C10.4354 18.1041 10.4298 18.0086 10.4916 17.9467C10.531 17.9074 10.9075 17.5983 11.3235 17.2554L12.0766 16.6428L12.2789 16.7271C12.3857 16.7721 12.7286 16.9069 13.0377 17.025ZM21.5977 17.3116C22.0193 17.6601 22.379 17.9467 22.3902 17.958C22.452 18.0142 22.1879 19.0315 21.9912 19.498C21.7214 20.15 21.283 20.8413 21.1312 20.875C21.0694 20.8862 20.6647 20.9087 20.2263 20.9256L19.4338 20.9593L18.9111 20.1724L18.3884 19.3856L18.4559 18.9809C18.4952 18.7561 18.5795 18.3177 18.6526 18.0086L18.7762 17.4521L19.1697 17.2948C19.3832 17.2104 19.8104 17.0418 20.1195 16.9182C20.4287 16.7945 20.7153 16.6934 20.7546 16.6934C20.7884 16.6877 21.1706 16.9688 21.5977 17.3116ZM10.1937 19.9701C10.531 20.7345 10.9132 21.2853 11.5764 21.9485C11.9136 22.2914 12.3408 22.6679 12.5206 22.786C12.6949 22.904 12.841 23.0052 12.841 23.0164C12.841 23.0277 10.3005 23.0389 7.19241 23.0389H1.53819L1.57192 22.8253C1.81922 21.3865 2.46557 20.3635 3.45478 19.8577C4.02245 19.5711 4.118 19.5654 7.16992 19.5598L10.0083 19.5542L10.1937 19.9701ZM18.2086 20.5209C18.484 20.9312 18.7032 21.2909 18.7032 21.3246C18.7032 21.4427 18.158 22.8309 18.0737 22.9321C17.8545 23.1794 16.2414 23.2974 15.3365 23.1232C15.1004 23.0782 14.8925 23.0277 14.8812 23.0164C14.8531 22.9883 14.336 21.6731 14.2349 21.3809C14.1843 21.2179 14.2068 21.1617 14.6677 20.4928L15.151 19.779H16.4325H17.714L18.2086 20.5209Z" fill="black"/>
</svg>
