<svg width="24" height="24" viewBox="0 0 24 24" fill="none" xmlns="http://www.w3.org/2000/svg">
<path d="M8.8784 0.0780885C8.56868 0.186022 8.24488 0.45351 8.04309 0.763233C7.86476 1.03541 7.88353 0.979101 6.56487 5.36684C6.04397 7.09378 5.31659 9.51525 4.94586 10.7401C4.57982 11.9649 4.04015 13.7622 3.7492 14.7289C3.45825 15.6956 3.21423 16.4934 3.20953 16.5028C3.20484 16.5075 2.9702 16.531 2.68864 16.5497C2.25221 16.5826 2.13489 16.6107 1.92371 16.7234C1.675 16.8594 1.48729 17.0565 1.32773 17.3569C1.25265 17.493 1.23857 17.6478 1.22449 18.2767L1.20572 19.0369L1.3465 19.1918L1.48729 19.3513L6.12844 19.3654L10.7649 19.3748L10.8963 19.7877C11.389 21.3363 12.4496 22.6222 13.8293 23.3308C14.3079 23.5795 14.9039 23.7907 15.4811 23.9127C16.0771 24.0394 17.3113 24.0253 17.9542 23.8892C20.8168 23.2745 22.6798 21.0548 22.7878 18.1312C22.8159 17.3756 22.7549 16.8594 22.5625 16.2118C22.0792 14.5928 20.8356 13.1381 19.3245 12.4342C18.4188 12.0118 17.6961 11.8569 16.6778 11.8616C16.293 11.8663 15.9035 11.8757 15.8143 11.8804L15.6548 11.8898L14.796 9.02721C14.322 7.45043 13.5946 5.03366 13.177 3.65398C12.7218 2.1476 12.3651 1.03541 12.276 0.871167C12.1164 0.561444 11.8255 0.28457 11.5017 0.125016C11.2952 0.0217752 11.2201 0.0170824 10.2018 0.00300412C9.25852 -0.00638143 9.09427 0.00300412 8.8784 0.0780885ZM11.1826 1.02603C11.267 1.07296 11.3796 1.20435 11.4407 1.31229C11.5674 1.53285 11.9756 2.85621 11.9334 2.89844C11.8912 2.94068 8.34812 2.93599 8.31996 2.89375C8.30588 2.87498 8.39505 2.5371 8.51706 2.14291C8.88309 0.922788 8.86902 0.932173 10.1267 0.932173C10.9479 0.932173 11.0512 0.941559 11.1826 1.02603ZM12.6936 5.29645C12.933 6.08484 13.1301 6.76529 13.1301 6.80752C13.1347 6.8873 12.9611 6.89199 10.1314 6.89199C7.42364 6.89199 7.128 6.88261 7.128 6.81691C7.128 6.74652 7.96331 3.94493 8.00555 3.87454C8.01493 3.85577 8.97695 3.84639 10.1455 3.85108L12.2619 3.86516L12.6936 5.29645ZM13.482 7.91033C14.1108 9.98922 14.5426 11.4487 14.5426 11.4862C14.5426 11.5238 13.1911 11.5378 10.1126 11.5378H5.68732L6.11905 10.0925C6.35838 9.29939 6.61179 8.46877 6.67749 8.23882L6.8042 7.83055H10.1314C13.2568 7.83055 13.4585 7.83524 13.482 7.91033ZM13.8152 12.5515C13.7636 12.589 13.5242 12.7486 13.2802 12.9081C12.2103 13.6074 11.3233 14.7852 10.9057 16.0617L10.7508 16.5356H7.51281C5.72955 16.5356 4.25602 16.5216 4.23725 16.4981C4.2044 16.4699 4.45312 15.6159 5.21804 13.0958L5.40575 12.4764H9.6574C13.4069 12.4811 13.8997 12.4905 13.8152 12.5515ZM15.819 13.1709L16.2085 13.3962L16.2226 14.3394L16.232 15.2827L15.4342 15.7379L14.6364 16.1978L14.4722 16.1086C14.383 16.0617 14.0217 15.8552 13.665 15.644L13.0174 15.2639L13.0315 14.7993L13.0456 14.33L13.2427 14.1283C13.4585 13.903 14.0498 13.4947 14.4346 13.3023C14.6505 13.1944 15.3122 12.9504 15.3967 12.9457C15.4107 12.9457 15.6031 13.0489 15.819 13.1709ZM18.3719 13.0583C18.9913 13.2695 19.5685 13.598 20.0941 14.0438L20.4085 14.3113V14.7899V15.2686L19.6155 15.7285C19.179 15.9772 18.8083 16.1837 18.7895 16.1837C18.7708 16.1837 18.4 15.9772 17.9636 15.7285L17.1705 15.2686L17.1799 14.3347L17.194 13.4009L17.5929 13.1756C17.8134 13.0489 18.0058 12.9457 18.0199 12.9457C18.034 12.9457 18.1936 12.9973 18.3719 13.0583ZM13.3553 16.5497L14.1437 17.0049L14.1531 17.9435L14.1672 18.882L13.3835 19.3278C12.9564 19.5719 12.5904 19.7783 12.5716 19.7877C12.5528 19.7971 12.3557 19.6939 12.1305 19.5625C11.7785 19.356 11.7222 19.3044 11.6847 19.1495C11.5392 18.6239 11.5017 17.8543 11.5908 17.2349C11.6753 16.6107 11.6988 16.5779 12.1493 16.3198C12.3698 16.1931 12.5528 16.0898 12.5575 16.0898C12.5622 16.0898 12.9189 16.2963 13.3553 16.5497ZM17.5084 16.545L18.2968 17.0002V17.9435C18.2968 18.7882 18.2874 18.8867 18.217 18.9336C18.1701 18.9618 17.8134 19.1683 17.4192 19.3982L16.7059 19.8065L15.9082 19.3466L15.1057 18.882V17.9435V17.0049L15.8941 16.5497C16.3258 16.301 16.6872 16.0945 16.6966 16.0945C16.7059 16.0898 17.072 16.2963 17.5084 16.545ZM21.2532 16.301C21.455 16.4183 21.6427 16.5403 21.6709 16.5732C21.8258 16.7656 21.9149 18.0843 21.8117 18.7178C21.7178 19.3278 21.7178 19.3278 21.272 19.5766L20.8684 19.8018L20.0613 19.3419L19.2588 18.8773V17.9482V17.019L20.0566 16.5544C20.4977 16.301 20.859 16.0898 20.8684 16.0898C20.8778 16.0898 21.0468 16.1837 21.2532 16.301ZM10.6006 17.9529V18.4362H6.37715H2.15366V18.1124C2.15366 17.8308 2.17243 17.7651 2.27098 17.6431C2.34137 17.5681 2.4493 17.4977 2.5197 17.4883C2.59009 17.4789 4.43435 17.4742 6.62587 17.4742H10.6006V17.9529ZM15.4811 20.1772L16.232 20.6184L16.2226 21.5569L16.2085 22.4908L15.8143 22.7254L15.4201 22.9554L15.0869 22.8474C14.4675 22.6503 13.7683 22.2421 13.2615 21.7869L13.0503 21.5991L13.0221 21.1533C13.0033 20.9046 13.008 20.6841 13.0315 20.6465C13.1066 20.5386 14.5613 19.708 14.6458 19.7267C14.6927 19.7314 15.0682 19.9379 15.4811 20.1772ZM19.6108 20.1585L20.4085 20.6184V21.097V21.571L20.188 21.7681C19.653 22.2421 18.7614 22.7442 18.1982 22.8944C17.9871 22.9507 17.9824 22.946 17.5788 22.7066L17.1705 22.4673V21.5428V20.6184L17.9589 20.1632C18.3907 19.9144 18.7614 19.708 18.7802 19.7033C18.7989 19.7033 19.1743 19.9097 19.6108 20.1585Z" fill="black"/>
</svg>
