<svg width="24" height="24" viewBox="0 0 24 24" fill="none" xmlns="http://www.w3.org/2000/svg">
<path d="M5.28753 11.0129C5.69273 11.0129 6.0978 10.8585 6.40693 10.5498C7.02426 9.93186 7.02426 8.93013 6.40693 8.31187L5.67226 7.57807L6.40693 6.84421C7.02426 6.22641 7.02426 5.22455 6.40693 4.60668C5.78886 3.98868 4.78647 3.98855 4.1692 4.60668L3.43534 5.34061L2.70061 4.60661C2.08341 3.98848 1.08108 3.98862 0.463748 4.60661C-0.154583 5.22455 -0.154583 6.22641 0.463748 6.84414L1.19748 7.57801L0.463748 8.3118C-0.154583 8.93007 -0.154583 9.93186 0.463748 10.5497C0.772747 10.8585 1.17715 11.0129 1.58208 11.0129C1.98728 11.0129 2.39234 10.8585 2.70054 10.5495L3.43527 9.8158L4.16914 10.5495C4.4782 10.8585 4.88247 11.0129 5.28753 11.0129Z" fill="black"/>
<path d="M16.5286 12.4727C14.4896 12.4727 12.837 14.1253 12.837 16.1643C12.837 18.2033 14.4896 19.856 16.5286 19.856C18.5675 19.856 20.2211 18.2033 20.2211 16.1643C20.2211 14.1253 18.5675 12.4727 16.5286 12.4727Z" fill="black"/>
<path d="M23.6148 3.90153C23.5467 3.6166 23.3627 3.37267 23.1082 3.2284L17.6447 0.137013C17.1382 -0.149786 16.4949 0.0282804 16.2083 0.534679L15.8641 1.14141C15.7262 1.38488 15.6905 1.67334 15.7651 1.94294C15.8395 2.21267 16.0191 2.44161 16.2627 2.57947L18.2341 3.69473C16.1814 4.4718 14.2656 5.61546 12.5174 7.10846C10.4456 8.87832 8.59957 11.1424 7.03191 13.8376C4.72032 17.8129 3.71732 21.4825 3.46486 22.5117C3.39792 22.788 3.44439 23.0791 3.59439 23.3203C3.74439 23.5615 3.98485 23.7323 4.26272 23.7934L5.08758 23.9753C5.16352 23.9922 5.24018 24 5.31545 24C5.78925 24 6.21938 23.6785 6.33785 23.2C6.57184 22.2591 7.49758 18.9124 9.58563 15.3228C12.0692 11.0526 15.171 8.13752 18.8301 6.62939L17.6506 8.39925C17.4956 8.63225 17.4391 8.91725 17.4939 9.19212C17.5494 9.46651 17.7113 9.70778 17.9441 9.86278L18.5248 10.2486C19.0097 10.5708 19.664 10.4395 19.987 9.95525L23.4662 4.7314C23.6291 4.48727 23.6827 4.18693 23.6148 3.90153Z" fill="black"/>
</svg>
